<svg id="svg" version="1.1" xmlns="http://www.w3.org/2000/svg" xmlns:xlink="http://www.w3.org/1999/xlink" width="400" height="400" viewBox="0, 0, 400,400"><g id="svgg"><path id="path0" d="M134.320 191.619 C 128.356 191.900,127.995 191.964,127.120 192.896 C 125.849 194.253,124.862 194.711,122.553 195.017 C 120.917 195.234,120.451 195.486,119.899 196.447 C 119.468 197.199,118.784 197.703,117.980 197.864 C 117.212 198.018,116.567 198.474,116.305 199.049 C 116.070 199.564,115.505 200.103,115.048 200.248 C 114.031 200.571,107.317 207.401,106.984 208.452 C 106.851 208.868,106.237 209.470,105.619 209.790 C 104.805 210.211,104.416 210.788,104.212 211.876 C 104.054 212.718,103.348 214.025,102.609 214.843 C 101.610 215.948,101.217 216.828,100.998 218.452 C 100.665 220.917,100.226 221.945,99.133 222.817 C 98.466 223.349,98.325 224.146,98.117 228.550 C 97.797 235.332,98.508 234.757,87.777 236.913 C 81.052 238.265,78.579 238.928,77.377 239.701 C 76.510 240.260,75.080 240.941,74.200 241.216 C 73.320 241.491,72.083 242.146,71.452 242.672 C 70.821 243.199,69.741 243.914,69.052 244.263 C 67.775 244.910,67.481 245.170,62.600 249.982 C 59.287 253.249,57.997 254.835,56.893 257.000 C 56.444 257.880,55.632 259.114,55.089 259.743 C 54.546 260.371,53.884 261.631,53.619 262.543 C 53.354 263.454,52.598 265.321,51.939 266.691 C 49.022 272.761,49.048 291.970,51.981 297.652 C 52.620 298.890,53.341 300.637,53.582 301.533 C 53.823 302.430,54.468 303.694,55.014 304.343 C 55.560 304.992,56.230 306.050,56.503 306.695 C 56.983 307.828,57.837 308.975,60.799 312.467 C 63.405 315.539,70.286 321.210,72.197 321.861 C 73.194 322.201,74.232 322.792,74.505 323.176 C 75.200 324.154,76.310 324.651,78.413 324.925 C 79.411 325.055,81.452 325.734,82.950 326.435 C 87.829 328.718,103.906 328.588,108.418 326.229 C 109.519 325.653,111.270 325.071,112.310 324.935 C 114.442 324.656,116.201 323.884,116.688 323.015 C 116.868 322.693,117.786 322.158,118.727 321.826 C 122.126 320.627,132.776 310.322,134.257 306.800 C 134.552 306.097,135.240 304.992,135.786 304.343 C 136.332 303.694,136.977 302.430,137.218 301.533 C 137.459 300.637,138.183 298.890,138.825 297.652 C 139.990 295.408,140.208 294.299,141.203 285.600 C 141.760 280.722,142.001 280.467,146.381 280.130 C 148.881 279.937,149.919 279.681,150.480 279.120 C 151.217 278.383,151.255 278.385,152.270 279.184 C 153.339 280.025,155.377 280.284,155.781 279.631 C 156.000 279.276,157.043 278.914,162.100 277.433 C 163.365 277.062,164.400 276.604,164.400 276.415 C 164.400 276.226,165.186 275.691,166.147 275.226 C 167.108 274.760,168.233 273.999,168.647 273.533 C 169.061 273.067,169.892 272.382,170.494 272.011 C 171.943 271.117,176.828 266.542,177.649 265.310 C 178.583 263.908,177.906 261.387,176.149 259.720 C 175.407 259.017,174.800 258.179,174.800 257.858 C 174.800 257.538,174.184 256.538,173.431 255.637 C 172.677 254.735,171.855 253.371,171.602 252.606 C 171.349 251.840,170.626 250.846,169.995 250.396 C 169.364 249.947,168.726 249.179,168.577 248.690 C 168.429 248.200,167.870 247.216,167.335 246.503 C 166.801 245.789,166.047 244.500,165.661 243.638 C 165.275 242.775,164.406 241.553,163.729 240.921 C 162.905 240.151,162.405 239.214,162.214 238.081 C 162.040 237.053,161.402 235.760,160.587 234.784 C 159.713 233.738,159.153 232.562,158.980 231.407 C 158.796 230.181,158.316 229.224,157.422 228.304 C 156.543 227.399,156.040 226.408,155.847 225.207 C 155.522 223.174,155.006 222.400,153.974 222.400 C 152.909 222.400,152.000 220.853,152.000 219.040 C 152.000 217.757,151.763 217.261,150.749 216.414 C 149.564 215.424,149.477 215.155,149.094 211.285 C 148.826 208.585,148.526 207.200,148.207 207.200 C 147.002 207.200,146.294 205.576,145.899 201.913 C 145.537 198.557,145.390 198.112,144.372 197.289 C 143.534 196.611,143.180 195.895,142.989 194.489 C 142.589 191.541,142.426 191.194,141.473 191.262 C 140.993 191.296,137.774 191.457,134.320 191.619 M327.859 246.162 C 326.816 246.485,326.039 247.089,325.459 248.029 C 324.986 248.793,321.662 252.294,318.070 255.809 C 312.858 260.910,301.419 272.281,299.400 274.366 C 299.180 274.594,294.365 279.381,288.700 285.005 C 283.035 290.629,278.400 295.382,278.400 295.566 C 278.400 296.228,279.513 296.804,281.528 297.186 C 282.655 297.400,284.523 298.054,285.679 298.640 C 287.359 299.491,288.631 299.768,292.017 300.018 C 295.463 300.273,296.734 300.555,298.827 301.530 C 300.242 302.188,302.319 302.847,303.443 302.993 C 306.482 303.389,307.920 304.410,308.075 306.279 L 308.200 307.800 312.646 307.913 L 317.091 308.025 317.458 309.313 C 317.756 310.356,318.057 310.623,319.047 310.720 C 320.087 310.823,320.323 311.061,320.634 312.320 C 320.949 313.593,321.176 313.817,322.260 313.922 C 323.341 314.027,323.556 314.237,323.775 315.407 C 323.993 316.567,324.233 316.807,325.393 317.025 C 326.563 317.244,326.773 317.459,326.878 318.540 C 326.983 319.624,327.207 319.851,328.480 320.166 C 329.744 320.478,329.977 320.711,330.080 321.766 C 330.182 322.820,330.415 323.053,331.680 323.366 C 332.944 323.678,333.177 323.911,333.280 324.966 C 333.382 326.020,333.580 326.218,334.634 326.320 C 335.689 326.423,335.922 326.656,336.234 327.920 C 336.547 329.185,336.780 329.418,337.834 329.520 C 338.889 329.623,339.122 329.856,339.434 331.120 C 339.750 332.399,339.974 332.617,341.076 332.724 C 342.188 332.831,342.369 333.012,342.476 334.124 C 342.583 335.226,342.801 335.450,344.080 335.766 C 345.344 336.078,345.577 336.311,345.680 337.366 C 345.783 338.424,346.014 338.653,347.300 338.971 C 348.574 339.285,348.800 339.505,348.800 340.428 C 348.800 341.513,349.407 342.000,350.762 342.000 C 351.235 342.000,351.578 342.483,351.829 343.500 C 352.147 344.786,352.376 345.017,353.434 345.120 C 354.489 345.223,354.722 345.456,355.034 346.720 C 355.357 348.026,355.561 348.215,356.768 348.330 C 357.584 348.408,358.573 348.892,359.219 349.530 C 361.056 351.344,361.519 351.600,362.959 351.600 C 364.280 351.600,364.358 351.678,364.476 353.100 L 364.600 354.600 376.800 354.600 L 389.000 354.600 389.124 353.100 C 389.239 351.713,389.345 351.598,390.524 351.571 C 392.172 351.533,394.065 350.420,394.701 349.115 C 394.977 348.549,395.664 347.970,396.228 347.829 C 397.427 347.528,398.400 345.550,398.400 343.413 C 398.400 342.267,398.551 342.000,399.200 342.000 C 399.984 342.000,400.000 341.733,400.000 328.400 C 400.000 315.201,399.977 314.800,399.223 314.800 C 398.595 314.800,398.422 314.474,398.323 313.100 C 398.204 311.455,398.152 311.396,396.723 311.277 C 395.335 311.162,395.238 311.065,395.123 309.677 C 395.007 308.289,394.911 308.193,393.523 308.077 C 392.135 307.962,392.038 307.865,391.923 306.477 C 391.812 305.139,391.680 304.988,390.523 304.876 C 389.366 304.764,389.234 304.613,389.123 303.276 C 389.007 301.890,388.910 301.793,387.524 301.677 C 386.187 301.566,386.036 301.434,385.924 300.277 C 385.811 299.116,385.663 298.989,384.300 298.876 C 382.842 298.755,382.800 298.708,382.800 297.176 C 382.800 295.604,382.796 295.600,381.200 295.600 L 379.600 295.600 379.600 294.000 C 379.600 292.404,379.596 292.400,378.024 292.400 C 376.492 292.400,376.445 292.358,376.324 290.900 C 376.211 289.537,376.084 289.389,374.923 289.276 C 373.766 289.164,373.634 289.013,373.523 287.676 C 373.407 286.285,373.314 286.193,371.900 286.076 C 370.481 285.958,370.400 285.877,370.400 284.576 C 370.400 283.241,370.353 283.200,368.824 283.200 C 367.292 283.200,367.245 283.158,367.124 281.700 C 367.007 280.281,366.919 280.193,365.500 280.076 C 364.042 279.955,364.000 279.908,364.000 278.376 C 364.000 276.808,363.992 276.800,362.424 276.800 C 360.892 276.800,360.845 276.758,360.724 275.300 C 360.611 273.937,360.484 273.789,359.323 273.676 C 358.166 273.564,358.034 273.413,357.923 272.076 C 357.807 270.689,357.711 270.593,356.323 270.477 C 354.935 270.362,354.838 270.265,354.723 268.877 C 354.607 267.489,354.511 267.393,353.124 267.277 C 351.787 267.166,351.636 267.034,351.524 265.877 C 351.411 264.716,351.263 264.589,349.900 264.476 C 348.442 264.355,348.400 264.308,348.400 262.776 C 348.400 261.208,348.392 261.200,346.824 261.200 C 345.292 261.200,345.245 261.158,345.124 259.700 C 345.007 258.286,344.915 258.193,343.523 258.077 C 342.135 257.962,342.038 257.865,341.923 256.477 C 341.812 255.139,341.680 254.988,340.523 254.876 C 339.366 254.764,339.234 254.613,339.123 253.276 C 339.007 251.890,338.910 251.793,337.524 251.677 C 336.187 251.566,336.036 251.434,335.924 250.277 C 335.811 249.116,335.663 248.989,334.300 248.876 C 332.842 248.755,332.800 248.708,332.800 247.176 L 332.800 245.600 331.100 245.642 C 330.165 245.665,328.706 245.899,327.859 246.162 " stroke="none" fill="#b5382c" fill-rule="evenodd"></path><path id="path1" d="M156.019 79.642 C 154.448 81.213,153.810 82.468,153.260 85.065 C 153.020 86.201,152.294 88.181,151.646 89.465 C 150.988 90.768,150.340 92.853,150.178 94.184 C 150.018 95.495,149.373 97.655,148.744 98.984 C 147.955 100.652,147.601 102.028,147.600 103.427 C 147.600 105.709,146.657 109.286,145.840 110.103 C 145.083 110.860,144.402 114.349,144.392 117.520 C 144.386 119.390,144.072 121.046,143.354 123.000 C 141.761 127.332,141.633 128.773,141.488 143.977 C 141.289 164.902,141.611 175.122,142.514 176.451 C 143.522 177.936,144.006 179.718,144.397 183.400 C 144.869 187.841,145.155 188.814,146.418 190.268 C 147.541 191.560,147.772 192.466,148.242 197.400 C 148.440 199.481,148.747 200.486,149.439 201.312 C 150.511 202.594,151.195 204.755,151.198 206.874 C 151.201 208.742,151.718 210.106,152.809 211.122 C 153.712 211.963,154.374 214.127,154.390 216.286 C 154.397 217.117,154.804 218.037,155.541 218.886 C 157.025 220.594,157.600 221.720,157.600 222.917 C 157.600 223.451,158.228 224.678,158.996 225.644 C 159.951 226.845,160.471 227.990,160.643 229.267 C 160.832 230.671,161.229 231.459,162.243 232.442 C 163.266 233.433,163.653 234.207,163.843 235.642 C 164.034 237.078,164.421 237.851,165.447 238.846 C 166.328 239.699,166.800 240.535,166.800 241.239 C 166.800 242.046,167.146 242.525,168.163 243.125 C 169.312 243.803,169.607 244.288,170.035 246.202 C 170.446 248.035,170.741 248.550,171.564 248.862 C 172.779 249.324,173.186 249.885,173.194 251.110 C 173.198 251.703,173.540 252.149,174.176 252.391 C 175.381 252.849,175.940 253.852,176.250 256.114 C 176.460 257.642,176.646 257.906,177.745 258.230 C 178.740 258.523,179.075 258.903,179.362 260.064 C 179.595 261.006,180.065 261.683,180.683 261.965 C 181.210 262.205,181.896 263.012,182.208 263.757 C 182.519 264.503,183.275 265.631,183.887 266.265 C 185.885 268.333,188.594 271.665,188.869 272.391 C 189.017 272.782,189.672 273.481,190.324 273.946 C 190.977 274.411,191.616 275.198,191.744 275.696 C 191.873 276.193,192.516 276.903,193.174 277.273 C 193.833 277.643,194.489 278.415,194.633 278.987 C 194.802 279.663,195.363 280.225,196.233 280.588 C 197.048 280.929,197.664 281.518,197.809 282.095 C 197.951 282.658,198.528 283.224,199.234 283.490 C 199.984 283.773,200.574 284.380,200.839 285.140 C 201.110 285.919,201.676 286.488,202.444 286.756 C 203.208 287.022,203.778 287.592,204.044 288.356 C 204.305 289.104,204.881 289.689,205.603 289.941 C 206.233 290.161,207.028 290.881,207.370 291.542 C 207.712 292.203,208.370 292.863,208.832 293.010 C 209.295 293.157,209.920 293.869,210.222 294.592 C 210.576 295.437,211.142 295.999,211.811 296.167 C 212.451 296.328,213.045 296.890,213.356 297.631 C 213.640 298.307,214.461 299.132,215.231 299.517 C 216.008 299.905,216.651 300.554,216.717 301.019 C 216.787 301.504,217.327 302.023,218.042 302.294 C 218.779 302.572,219.421 303.203,219.689 303.911 C 219.950 304.603,220.597 305.250,221.289 305.511 C 221.997 305.779,222.628 306.421,222.906 307.158 C 223.177 307.873,223.696 308.413,224.181 308.483 C 224.641 308.549,225.292 309.185,225.666 309.934 C 226.032 310.668,226.927 311.568,227.655 311.934 C 228.446 312.333,229.069 313.001,229.206 313.598 C 229.336 314.163,229.775 314.658,230.218 314.739 C 231.210 314.921,232.400 315.964,232.400 316.652 C 232.400 316.942,232.948 317.463,233.617 317.809 C 234.287 318.155,235.042 318.893,235.295 319.449 C 235.549 320.005,236.269 320.725,236.895 321.049 C 237.522 321.373,238.242 322.093,238.495 322.649 C 238.749 323.205,239.451 323.916,240.055 324.229 C 240.660 324.541,241.392 325.293,241.681 325.899 C 242.499 327.615,245.311 327.719,246.166 326.065 C 246.501 325.417,247.291 324.707,247.921 324.487 C 248.604 324.250,249.266 323.606,249.560 322.896 C 249.832 322.240,250.483 321.508,251.008 321.269 C 251.532 321.030,252.238 320.300,252.576 319.646 C 252.915 318.992,253.537 318.347,253.960 318.213 C 254.383 318.078,255.195 317.358,255.764 316.611 C 256.334 315.865,257.142 315.145,257.560 315.013 C 257.978 314.880,258.433 314.322,258.571 313.773 C 258.709 313.224,259.375 312.439,260.051 312.028 C 260.727 311.616,261.616 310.727,262.028 310.051 C 262.439 309.375,263.224 308.709,263.773 308.571 C 264.322 308.433,264.880 307.978,265.013 307.560 C 265.145 307.142,265.865 306.334,266.611 305.764 C 267.358 305.195,268.078 304.383,268.213 303.960 C 268.347 303.537,268.992 302.915,269.646 302.576 C 270.300 302.238,271.024 301.545,271.256 301.036 C 271.488 300.527,272.274 299.827,273.002 299.480 C 273.938 299.033,274.406 298.482,274.600 297.599 C 274.769 296.833,275.248 296.179,275.837 295.910 C 276.611 295.558,276.800 295.170,276.800 293.936 C 276.800 292.862,276.974 292.400,277.379 292.400 C 278.039 292.400,280.000 290.702,280.000 290.130 C 280.000 289.922,280.716 289.133,281.591 288.376 C 282.466 287.619,283.186 286.886,283.191 286.747 C 283.201 286.474,286.393 283.200,286.650 283.200 C 286.982 283.200,292.400 277.518,292.400 277.169 C 292.400 276.966,292.545 276.800,292.723 276.800 C 293.231 276.800,301.441 268.681,301.722 267.900 C 301.861 267.515,302.206 267.194,302.487 267.187 C 303.118 267.170,304.800 265.806,304.800 265.311 C 304.800 264.890,306.993 263.200,307.540 263.200 C 307.745 263.200,308.015 262.793,308.140 262.296 C 308.265 261.799,308.946 261.050,309.653 260.633 C 312.071 259.204,325.600 245.274,325.600 244.212 C 325.600 243.682,325.780 243.136,326.000 243.000 C 326.535 242.669,326.514 240.000,325.976 240.000 C 325.743 240.000,325.649 239.844,325.768 239.652 C 325.886 239.461,325.401 239.326,324.691 239.352 C 323.479 239.397,323.405 239.321,323.475 238.108 C 323.522 237.295,323.373 236.851,323.075 236.908 C 322.814 236.959,322.641 236.786,322.692 236.525 C 322.749 236.227,322.305 236.078,321.492 236.125 C 320.270 236.196,320.204 236.129,320.276 234.891 C 320.318 234.171,320.196 233.679,320.004 233.797 C 319.812 233.916,319.542 233.830,319.404 233.607 C 319.266 233.383,318.658 233.200,318.054 233.200 C 317.054 233.200,316.958 233.070,316.978 231.746 C 316.999 230.382,316.916 230.283,315.629 230.142 C 313.932 229.955,313.931 229.954,313.884 228.305 C 313.849 227.053,313.747 226.951,312.495 226.916 C 310.878 226.870,310.827 226.829,310.714 225.468 C 310.665 224.881,310.474 224.400,310.289 224.400 C 310.104 224.400,310.054 224.236,310.178 224.035 C 310.593 223.365,308.266 223.895,307.760 224.587 C 306.610 226.159,303.619 225.701,302.563 223.791 C 302.323 223.356,301.648 222.765,301.063 222.478 C 300.478 222.191,300.000 221.777,300.000 221.558 C 300.000 221.339,298.785 220.000,297.300 218.583 C 295.815 217.165,294.374 215.779,294.097 215.503 C 293.821 215.226,291.718 213.110,289.425 210.800 C 287.131 208.490,285.017 206.363,284.727 206.073 C 284.437 205.783,282.991 204.298,281.514 202.773 C 280.036 201.248,278.670 200.000,278.478 200.000 C 278.286 200.000,277.927 199.559,277.682 199.019 C 277.436 198.480,276.687 197.755,276.017 197.409 C 275.348 197.063,274.800 196.571,274.800 196.315 C 274.800 196.060,273.585 194.706,272.100 193.307 C 270.615 191.907,269.220 190.576,269.000 190.349 C 268.780 190.122,266.710 188.056,264.400 185.757 C 258.966 180.349,259.258 180.646,257.400 178.609 C 254.104 174.995,250.941 172.000,250.419 172.000 C 250.189 172.000,250.000 171.761,250.000 171.470 C 250.000 171.178,249.685 170.650,249.300 170.297 C 248.915 169.943,247.753 168.876,246.718 167.927 C 244.213 165.628,243.681 165.096,241.800 163.011 C 239.747 160.734,239.163 160.145,237.030 158.200 C 236.065 157.320,235.034 156.358,234.738 156.062 C 232.024 153.349,230.800 151.964,230.800 151.608 C 230.800 151.377,230.188 150.895,229.439 150.538 C 228.690 150.181,227.888 149.473,227.656 148.964 C 227.424 148.455,226.708 147.766,226.064 147.433 C 225.420 147.100,224.780 146.375,224.641 145.821 C 224.501 145.262,223.849 144.536,223.177 144.188 C 222.511 143.843,221.770 143.132,221.531 142.608 C 221.292 142.083,220.580 141.440,219.948 141.179 C 219.317 140.917,218.800 140.529,218.800 140.316 C 218.800 139.984,217.854 138.918,214.800 135.803 C 214.470 135.467,212.889 133.888,211.287 132.296 C 207.285 128.317,206.556 127.505,206.281 126.723 C 206.150 126.351,205.552 125.725,204.952 125.332 C 204.352 124.938,203.037 123.730,202.030 122.646 C 198.245 118.570,157.893 78.400,157.584 78.400 C 157.407 78.400,156.702 78.959,156.019 79.642 " stroke="none" fill="#d8d5d7" fill-rule="evenodd"></path><path id="path2" d="M0.000 200.000 L 0.000 400.000 154.000 400.000 L 308.000 400.000 308.000 354.271 C 308.000 314.054,307.925 308.324,307.381 306.726 L 306.762 304.910 304.322 304.655 C 302.981 304.515,300.907 304.400,299.715 304.400 C 297.337 304.400,296.317 303.998,295.042 302.560 C 294.269 301.687,293.792 301.588,289.200 301.349 C 284.051 301.081,281.583 300.374,281.062 299.017 C 280.926 298.664,280.345 298.400,279.702 298.400 C 279.084 298.400,278.174 298.117,277.680 297.771 C 276.799 297.154,276.486 297.438,261.118 312.815 L 245.455 328.489 243.641 328.240 C 242.555 328.091,241.675 327.721,241.449 327.316 C 241.241 326.945,240.695 326.296,240.236 325.875 C 237.844 323.681,225.199 311.134,224.922 310.679 C 224.745 310.388,223.448 309.099,222.039 307.816 C 220.631 306.532,218.405 304.294,217.092 302.841 C 215.779 301.388,214.485 300.110,214.216 300.000 C 213.948 299.890,212.124 298.110,210.164 296.045 C 208.204 293.980,206.258 292.000,205.841 291.645 C 204.043 290.117,200.111 286.161,199.962 285.730 C 199.873 285.472,198.615 284.212,197.167 282.930 C 195.719 281.649,193.683 279.610,192.644 278.400 C 191.605 277.190,190.360 275.781,189.877 275.269 C 189.395 274.757,188.730 274.051,188.400 273.701 C 186.866 272.070,184.866 269.685,184.077 268.544 C 183.599 267.854,182.585 266.665,181.822 265.902 L 180.436 264.516 179.863 265.758 C 179.547 266.441,179.162 267.421,179.006 267.937 C 178.843 268.474,178.153 269.111,177.386 269.432 C 176.650 269.739,175.810 270.487,175.519 271.095 C 175.228 271.702,174.337 272.506,173.539 272.882 C 172.741 273.258,171.489 274.112,170.757 274.781 C 170.025 275.449,168.835 276.107,168.113 276.243 C 167.186 276.417,166.800 276.709,166.800 277.235 C 166.800 278.335,165.316 279.089,162.549 279.396 C 160.498 279.623,160.027 279.822,159.667 280.613 C 159.028 282.015,156.424 282.629,153.571 282.050 C 151.074 281.544,145.680 281.851,144.754 282.553 C 144.429 282.799,143.843 284.342,143.451 285.983 C 143.060 287.624,142.576 289.272,142.376 289.646 C 142.176 290.019,141.815 292.090,141.574 294.248 C 141.133 298.211,140.719 299.542,139.753 300.113 C 139.462 300.286,138.962 301.307,138.642 302.382 C 137.931 304.776,137.259 306.096,136.532 306.525 C 136.228 306.704,135.608 307.643,135.153 308.610 C 134.698 309.578,134.001 310.473,133.603 310.599 C 133.205 310.725,132.758 311.311,132.611 311.900 C 132.298 313.144,125.985 319.343,124.334 320.027 C 123.725 320.280,123.125 320.805,123.002 321.194 C 122.878 321.584,121.927 322.279,120.888 322.740 C 119.850 323.200,118.542 323.949,117.983 324.404 C 117.423 324.860,115.903 325.510,114.604 325.849 C 113.305 326.189,111.804 326.811,111.269 327.232 C 107.480 330.212,83.392 330.233,79.552 327.260 C 79.028 326.855,77.327 326.140,75.771 325.671 C 74.215 325.203,72.631 324.477,72.252 324.057 C 71.872 323.637,70.768 322.991,69.799 322.621 C 68.830 322.251,67.933 321.619,67.805 321.217 C 67.678 320.815,67.084 320.282,66.487 320.033 C 64.787 319.324,58.883 313.557,58.380 312.115 C 58.134 311.410,57.605 310.728,57.203 310.601 C 56.802 310.474,56.102 309.578,55.647 308.610 C 55.192 307.643,54.572 306.704,54.268 306.525 C 53.541 306.096,52.869 304.776,52.158 302.382 C 51.838 301.307,51.279 300.260,50.916 300.057 C 50.446 299.794,49.993 298.250,49.357 294.743 C 48.863 292.024,48.164 288.810,47.804 287.600 C 46.968 284.797,47.155 277.753,48.124 275.485 C 48.480 274.652,49.057 272.042,49.405 269.685 C 49.879 266.474,50.289 265.037,51.037 263.953 C 51.586 263.157,52.224 261.807,52.454 260.953 C 52.684 260.099,53.364 258.860,53.964 258.200 C 54.564 257.540,55.383 256.239,55.784 255.309 C 56.185 254.379,56.910 253.358,57.395 253.040 C 57.880 252.722,58.504 251.914,58.782 251.244 C 59.059 250.575,59.619 249.921,60.027 249.792 C 60.434 249.662,61.330 248.846,62.017 247.978 C 62.705 247.110,63.501 246.400,63.786 246.400 C 64.072 246.400,64.786 245.770,65.373 245.000 C 65.961 244.229,67.000 243.310,67.683 242.957 C 68.366 242.604,69.298 241.967,69.755 241.542 C 70.211 241.117,71.517 240.498,72.656 240.166 C 73.796 239.835,74.825 239.312,74.944 239.003 C 75.281 238.124,77.155 237.344,80.169 236.827 C 81.693 236.566,83.673 235.928,84.569 235.409 C 85.650 234.784,87.144 234.383,89.000 234.218 C 95.096 233.677,94.873 233.916,96.011 226.699 C 96.949 220.754,97.398 219.049,98.408 217.600 C 98.792 217.050,99.409 215.700,99.780 214.600 C 100.151 213.500,100.781 212.240,101.181 211.800 C 101.580 211.360,102.224 210.370,102.613 209.600 C 103.419 208.002,105.530 205.488,109.000 201.994 C 112.487 198.483,113.215 197.845,115.066 196.681 C 115.983 196.104,116.839 195.460,116.970 195.249 C 117.588 194.249,125.579 190.777,128.558 190.214 C 130.294 189.885,132.138 189.339,132.655 189.001 C 133.993 188.124,141.831 187.302,142.841 187.933 C 144.258 188.818,143.532 180.220,142.019 178.200 C 139.984 175.483,140.317 126.503,142.400 122.200 C 142.929 121.107,143.348 119.025,143.614 116.166 C 144.047 111.514,144.459 109.823,145.655 107.797 C 146.067 107.099,146.573 105.190,146.780 103.554 C 147.007 101.766,147.637 99.548,148.361 97.990 C 149.023 96.566,149.739 94.295,149.953 92.945 C 150.166 91.594,150.798 89.588,151.356 88.486 C 151.915 87.384,152.654 85.242,152.999 83.726 C 153.783 80.278,154.801 78.577,156.593 77.723 L 157.991 77.056 181.895 100.880 C 195.043 113.984,206.430 125.342,207.200 126.122 C 263.751 183.382,304.959 224.036,306.330 223.922 L 307.800 223.800 307.901 111.900 L 308.001 0.000 154.001 0.000 L 0.000 0.000 0.000 200.000 M211.200 59.400 L 211.200 67.189 182.700 67.295 C 167.025 67.353,141.645 67.354,126.300 67.297 L 98.400 67.195 98.400 59.400 L 98.400 51.605 126.300 51.503 C 141.645 51.446,167.025 51.447,182.700 51.505 L 211.200 51.611 211.200 59.400 " stroke="none" fill="#fbce3a" fill-rule="evenodd"></path><path id="path3" d="M136.286 188.050 C 134.794 188.242,133.155 188.673,132.644 189.008 C 132.133 189.343,130.294 189.885,128.558 190.214 C 125.579 190.777,117.588 194.249,116.970 195.249 C 116.839 195.460,115.983 196.104,115.066 196.681 C 113.215 197.845,112.487 198.483,109.000 201.994 C 105.530 205.488,103.419 208.002,102.613 209.600 C 102.224 210.370,101.580 211.360,101.181 211.800 C 100.781 212.240,100.151 213.500,99.780 214.600 C 99.409 215.700,98.792 217.050,98.408 217.600 C 97.398 219.049,96.949 220.754,96.011 226.699 C 94.873 233.916,95.096 233.677,89.000 234.218 C 87.144 234.383,85.650 234.784,84.569 235.409 C 83.673 235.928,81.693 236.566,80.169 236.827 C 77.155 237.344,75.281 238.124,74.944 239.003 C 74.825 239.312,73.796 239.835,72.656 240.166 C 71.517 240.498,70.211 241.117,69.755 241.542 C 69.298 241.967,68.366 242.604,67.683 242.957 C 67.000 243.310,65.961 244.229,65.373 245.000 C 64.786 245.770,64.072 246.400,63.786 246.400 C 63.501 246.400,62.705 247.110,62.017 247.978 C 61.330 248.846,60.434 249.662,60.027 249.792 C 59.619 249.921,59.059 250.575,58.782 251.244 C 58.504 251.914,57.880 252.722,57.395 253.040 C 56.910 253.358,56.185 254.379,55.784 255.309 C 55.383 256.239,54.564 257.540,53.964 258.200 C 53.364 258.860,52.684 260.099,52.454 260.953 C 52.224 261.807,51.586 263.157,51.037 263.953 C 50.289 265.037,49.879 266.474,49.405 269.685 C 49.057 272.042,48.480 274.652,48.124 275.485 C 47.155 277.753,46.968 284.797,47.804 287.600 C 48.164 288.810,48.863 292.024,49.357 294.743 C 49.993 298.250,50.446 299.794,50.916 300.057 C 51.279 300.260,51.838 301.307,52.158 302.382 C 52.869 304.776,53.541 306.096,54.268 306.525 C 54.572 306.704,55.192 307.643,55.647 308.610 C 56.102 309.578,56.802 310.474,57.203 310.601 C 57.605 310.728,58.134 311.410,58.380 312.115 C 58.883 313.557,64.787 319.324,66.487 320.033 C 67.084 320.282,67.678 320.815,67.805 321.217 C 67.933 321.619,68.830 322.251,69.799 322.621 C 70.768 322.991,71.872 323.637,72.252 324.057 C 72.631 324.477,74.215 325.203,75.771 325.671 C 77.327 326.140,79.028 326.855,79.552 327.260 C 83.392 330.233,107.480 330.212,111.269 327.232 C 111.804 326.811,113.305 326.189,114.604 325.849 C 115.903 325.510,117.423 324.860,117.983 324.404 C 118.542 323.949,119.850 323.200,120.888 322.740 C 121.927 322.279,122.878 321.584,123.002 321.194 C 123.125 320.805,123.725 320.280,124.334 320.027 C 125.985 319.343,132.298 313.144,132.611 311.900 C 132.758 311.311,133.205 310.725,133.603 310.599 C 134.001 310.473,134.698 309.578,135.153 308.610 C 135.608 307.643,136.228 306.704,136.532 306.525 C 137.259 306.096,137.931 304.776,138.642 302.382 C 138.962 301.307,139.462 300.286,139.753 300.113 C 140.719 299.542,141.133 298.211,141.574 294.248 C 141.815 292.090,142.176 290.019,142.376 289.646 C 142.576 289.272,143.060 287.624,143.451 285.983 C 143.843 284.342,144.429 282.799,144.754 282.553 C 145.680 281.851,151.074 281.544,153.571 282.050 C 156.424 282.629,159.028 282.015,159.667 280.613 C 160.027 279.822,160.498 279.623,162.549 279.396 C 165.316 279.089,166.800 278.335,166.800 277.235 C 166.800 276.709,167.186 276.417,168.113 276.243 C 168.835 276.107,170.025 275.449,170.757 274.781 C 171.489 274.112,172.741 273.258,173.539 272.882 C 174.337 272.506,175.228 271.702,175.519 271.095 C 175.810 270.487,176.650 269.739,177.386 269.432 C 178.153 269.111,178.843 268.474,179.006 267.937 C 179.162 267.421,179.563 266.407,179.898 265.683 C 180.467 264.453,180.454 264.307,179.700 263.483 C 179.257 262.997,178.620 262.060,178.285 261.400 C 177.950 260.740,177.195 259.784,176.608 259.276 C 176.020 258.768,175.286 257.746,174.976 257.004 C 174.666 256.262,174.225 255.539,173.997 255.398 C 173.769 255.257,173.047 254.082,172.393 252.786 C 171.739 251.490,170.843 250.237,170.401 250.001 C 169.960 249.764,169.320 248.905,168.980 248.091 C 168.640 247.277,168.023 246.248,167.608 245.805 C 167.193 245.362,166.497 244.166,166.061 243.147 C 165.625 242.127,164.922 241.047,164.498 240.747 C 163.523 240.056,162.976 238.993,162.643 237.145 C 162.499 236.344,161.961 235.264,161.449 234.745 C 160.284 233.562,159.785 232.582,159.447 230.806 C 159.302 230.039,158.669 228.772,158.041 227.991 C 157.413 227.209,156.770 225.804,156.611 224.867 C 156.415 223.705,155.903 222.756,155.000 221.879 C 153.977 220.885,153.576 220.053,153.237 218.216 C 152.995 216.909,152.344 215.185,151.790 214.385 C 150.590 212.654,150.000 210.769,150.000 208.668 C 150.000 207.672,149.522 206.261,148.646 204.665 C 147.828 203.175,147.184 201.333,147.020 200.008 C 146.870 198.802,146.235 196.642,145.607 195.208 C 144.980 193.774,144.342 191.880,144.189 191.000 C 143.574 187.468,142.866 187.204,136.286 188.050 M142.539 191.900 C 142.646 192.285,142.848 193.450,142.989 194.489 C 143.180 195.895,143.534 196.611,144.372 197.289 C 145.390 198.112,145.537 198.557,145.899 201.913 C 146.294 205.576,147.002 207.200,148.207 207.200 C 148.526 207.200,148.826 208.585,149.094 211.285 C 149.477 215.155,149.564 215.424,150.749 216.414 C 151.763 217.261,152.000 217.757,152.000 219.040 C 152.000 220.853,152.909 222.400,153.974 222.400 C 155.006 222.400,155.522 223.174,155.847 225.207 C 156.040 226.408,156.543 227.399,157.422 228.304 C 158.316 229.224,158.796 230.181,158.980 231.407 C 159.153 232.562,159.713 233.738,160.587 234.784 C 161.402 235.760,162.040 237.053,162.214 238.081 C 162.405 239.214,162.905 240.151,163.729 240.921 C 164.406 241.553,165.275 242.775,165.661 243.638 C 166.047 244.500,166.801 245.789,167.335 246.503 C 167.870 247.216,168.429 248.200,168.577 248.690 C 168.726 249.179,169.364 249.947,169.995 250.396 C 170.626 250.846,171.349 251.840,171.602 252.606 C 171.855 253.371,172.677 254.735,173.431 255.637 C 174.184 256.538,174.800 257.538,174.800 257.858 C 174.800 258.179,175.407 259.017,176.149 259.720 C 177.906 261.387,178.583 263.908,177.649 265.310 C 176.828 266.542,171.943 271.117,170.494 272.011 C 169.892 272.382,169.061 273.067,168.647 273.533 C 168.233 273.999,167.108 274.760,166.147 275.226 C 165.186 275.691,164.400 276.226,164.400 276.415 C 164.400 276.604,163.365 277.062,162.100 277.433 C 157.043 278.914,156.000 279.276,155.781 279.631 C 155.377 280.284,153.339 280.025,152.270 279.184 C 151.255 278.385,151.217 278.383,150.480 279.120 C 149.919 279.681,148.881 279.937,146.381 280.130 C 142.001 280.467,141.760 280.722,141.203 285.600 C 140.208 294.299,139.990 295.408,138.825 297.652 C 138.183 298.890,137.459 300.637,137.218 301.533 C 136.977 302.430,136.332 303.694,135.786 304.343 C 135.240 304.992,134.552 306.097,134.257 306.800 C 132.776 310.322,122.126 320.627,118.727 321.826 C 117.786 322.158,116.868 322.693,116.688 323.015 C 116.201 323.884,114.442 324.656,112.310 324.935 C 111.270 325.071,109.519 325.653,108.418 326.229 C 103.906 328.588,87.829 328.718,82.950 326.435 C 81.452 325.734,79.411 325.055,78.413 324.925 C 76.310 324.651,75.200 324.154,74.505 323.176 C 74.232 322.792,73.194 322.201,72.197 321.861 C 70.286 321.210,63.405 315.539,60.799 312.467 C 57.837 308.975,56.983 307.828,56.503 306.695 C 56.230 306.050,55.560 304.992,55.014 304.343 C 54.468 303.694,53.823 302.430,53.582 301.533 C 53.341 300.637,52.620 298.890,51.981 297.652 C 49.048 291.970,49.022 272.761,51.939 266.691 C 52.598 265.321,53.354 263.454,53.619 262.543 C 53.884 261.631,54.546 260.371,55.089 259.743 C 55.632 259.114,56.444 257.880,56.893 257.000 C 57.997 254.835,59.287 253.249,62.600 249.982 C 67.481 245.170,67.775 244.910,69.052 244.263 C 69.741 243.914,70.821 243.199,71.452 242.672 C 72.083 242.146,73.320 241.491,74.200 241.216 C 75.080 240.941,76.510 240.260,77.377 239.701 C 78.579 238.928,81.052 238.265,87.777 236.913 C 98.508 234.757,97.797 235.332,98.117 228.550 C 98.325 224.146,98.466 223.349,99.133 222.817 C 100.226 221.945,100.665 220.917,100.998 218.452 C 101.217 216.828,101.610 215.948,102.609 214.843 C 103.348 214.025,104.054 212.718,104.212 211.876 C 104.416 210.788,104.805 210.211,105.619 209.790 C 106.237 209.470,106.851 208.868,106.984 208.452 C 107.317 207.401,114.031 200.571,115.048 200.248 C 115.505 200.103,116.070 199.564,116.305 199.049 C 116.567 198.474,117.212 198.018,117.980 197.864 C 118.784 197.703,119.468 197.199,119.899 196.447 C 120.451 195.486,120.917 195.234,122.553 195.017 C 124.862 194.711,125.849 194.253,127.120 192.896 C 127.995 191.964,128.356 191.900,134.320 191.619 C 137.774 191.457,140.993 191.296,141.473 191.262 C 142.000 191.224,142.423 191.477,142.539 191.900 M277.564 296.643 C 276.876 297.472,277.999 298.400,279.689 298.400 C 280.344 298.400,280.925 298.661,281.062 299.017 C 281.583 300.374,284.051 301.081,289.200 301.349 C 293.792 301.588,294.269 301.687,295.042 302.560 C 296.317 303.998,297.337 304.400,299.715 304.400 C 305.472 304.400,306.713 304.750,307.354 306.555 L 307.937 308.200 307.968 306.494 C 308.007 304.424,306.707 303.418,303.443 302.993 C 302.319 302.847,300.242 302.188,298.827 301.530 C 296.746 300.561,295.446 300.270,292.027 300.009 C 288.535 299.742,287.348 299.470,285.200 298.443 C 283.770 297.760,282.150 297.199,281.600 297.198 C 281.050 297.196,280.084 296.926,279.454 296.598 C 278.059 295.870,278.209 295.866,277.564 296.643 " stroke="none" fill="#dcac2c" fill-rule="evenodd"></path><path id="path4" d="M156.119 77.984 C 154.547 78.943,153.781 80.370,152.976 83.840 C 152.635 85.310,151.903 87.407,151.349 88.501 C 150.795 89.595,150.166 91.594,149.953 92.945 C 149.739 94.295,149.023 96.566,148.361 97.990 C 147.637 99.548,147.007 101.766,146.780 103.554 C 146.573 105.190,146.067 107.099,145.655 107.797 C 144.459 109.823,144.047 111.514,143.614 116.166 C 143.348 119.025,142.929 121.107,142.400 122.200 C 140.317 126.503,139.984 175.483,142.019 178.200 C 142.752 179.178,143.600 183.177,143.600 185.653 C 143.600 189.111,144.195 191.930,145.617 195.208 C 146.239 196.642,146.870 198.802,147.020 200.008 C 147.184 201.333,147.828 203.175,148.646 204.665 C 149.522 206.261,150.000 207.672,150.000 208.668 C 150.000 210.769,150.590 212.654,151.790 214.385 C 152.344 215.185,152.995 216.909,153.237 218.216 C 153.576 220.053,153.977 220.885,155.000 221.879 C 155.903 222.756,156.415 223.705,156.611 224.867 C 156.770 225.804,157.413 227.209,158.041 227.991 C 158.669 228.772,159.302 230.039,159.447 230.806 C 159.785 232.582,160.284 233.562,161.449 234.745 C 161.961 235.264,162.499 236.344,162.643 237.145 C 162.976 238.993,163.523 240.056,164.498 240.747 C 164.922 241.047,165.625 242.127,166.061 243.147 C 166.497 244.166,167.193 245.362,167.608 245.805 C 168.023 246.248,168.640 247.277,168.980 248.091 C 169.320 248.905,169.960 249.764,170.401 250.001 C 170.843 250.237,171.739 251.490,172.393 252.786 C 173.047 254.082,173.769 255.257,173.997 255.398 C 174.225 255.539,174.666 256.262,174.976 257.004 C 175.286 257.746,176.021 258.768,176.609 259.276 C 177.197 259.784,178.006 260.830,178.407 261.600 C 178.808 262.370,180.064 263.990,181.199 265.200 C 182.335 266.410,183.642 267.940,184.104 268.600 C 184.875 269.699,186.922 272.130,188.400 273.701 C 188.730 274.051,189.395 274.757,189.877 275.269 C 190.360 275.781,191.605 277.190,192.644 278.400 C 193.683 279.610,195.719 281.649,197.167 282.930 C 198.615 284.212,199.873 285.472,199.962 285.730 C 200.111 286.161,204.043 290.117,205.841 291.645 C 206.258 292.000,208.204 293.980,210.164 296.045 C 212.124 298.110,213.948 299.890,214.216 300.000 C 214.485 300.110,215.779 301.388,217.092 302.841 C 218.405 304.294,220.631 306.532,222.039 307.816 C 223.448 309.099,224.745 310.388,224.922 310.679 C 225.199 311.134,237.844 323.681,240.236 325.875 C 240.695 326.296,241.241 326.945,241.449 327.316 C 241.675 327.720,242.554 328.091,243.632 328.239 L 245.437 328.486 262.018 311.843 C 271.138 302.689,283.190 290.605,288.800 284.989 C 294.410 279.374,299.180 274.593,299.400 274.366 C 301.435 272.264,312.862 260.906,318.070 255.809 C 321.662 252.294,324.986 248.793,325.459 248.029 C 326.057 247.060,326.784 246.508,327.859 246.207 C 330.085 245.582,330.252 242.682,328.074 242.473 C 326.489 242.321,325.600 242.955,325.600 244.238 C 325.600 245.275,312.025 259.231,309.653 260.633 C 308.946 261.050,308.265 261.799,308.140 262.296 C 308.015 262.793,307.745 263.200,307.540 263.200 C 306.993 263.200,304.800 264.890,304.800 265.311 C 304.800 265.806,303.118 267.170,302.487 267.187 C 302.206 267.194,301.861 267.515,301.722 267.900 C 301.441 268.681,293.231 276.800,292.723 276.800 C 292.545 276.800,292.400 276.966,292.400 277.169 C 292.400 277.518,286.982 283.200,286.650 283.200 C 286.393 283.200,283.201 286.474,283.191 286.747 C 283.186 286.886,282.466 287.619,281.591 288.376 C 280.716 289.133,280.000 289.922,280.000 290.130 C 280.000 290.702,278.039 292.400,277.379 292.400 C 276.974 292.400,276.800 292.862,276.800 293.936 C 276.800 295.170,276.611 295.558,275.837 295.910 C 275.248 296.179,274.769 296.833,274.600 297.599 C 274.406 298.482,273.938 299.033,273.002 299.480 C 272.274 299.827,271.488 300.527,271.256 301.036 C 271.024 301.545,270.300 302.238,269.646 302.576 C 268.992 302.915,268.347 303.537,268.213 303.960 C 268.078 304.383,267.358 305.195,266.611 305.764 C 265.865 306.334,265.145 307.142,265.013 307.560 C 264.880 307.978,264.322 308.433,263.773 308.571 C 263.224 308.709,262.439 309.375,262.028 310.051 C 261.616 310.727,260.727 311.616,260.051 312.028 C 259.375 312.439,258.709 313.224,258.571 313.773 C 258.433 314.322,257.978 314.880,257.560 315.013 C 257.142 315.145,256.334 315.865,255.764 316.611 C 255.195 317.358,254.383 318.078,253.960 318.213 C 253.537 318.347,252.915 318.992,252.576 319.646 C 252.238 320.300,251.532 321.030,251.008 321.269 C 250.483 321.508,249.832 322.240,249.560 322.896 C 249.266 323.606,248.604 324.250,247.921 324.487 C 247.291 324.707,246.501 325.417,246.166 326.065 C 245.311 327.719,242.499 327.615,241.681 325.899 C 241.392 325.293,240.660 324.541,240.055 324.229 C 239.451 323.916,238.749 323.205,238.495 322.649 C 238.242 322.093,237.522 321.373,236.895 321.049 C 236.269 320.725,235.549 320.005,235.295 319.449 C 235.042 318.893,234.287 318.155,233.617 317.809 C 232.948 317.463,232.400 316.942,232.400 316.652 C 232.400 315.964,231.210 314.921,230.218 314.739 C 229.775 314.658,229.336 314.163,229.206 313.598 C 229.069 313.001,228.446 312.333,227.655 311.934 C 226.927 311.568,226.032 310.668,225.666 309.934 C 225.292 309.185,224.641 308.549,224.181 308.483 C 223.696 308.413,223.177 307.873,222.906 307.158 C 222.628 306.421,221.997 305.779,221.289 305.511 C 220.597 305.250,219.950 304.603,219.689 303.911 C 219.421 303.203,218.779 302.572,218.042 302.294 C 217.327 302.023,216.787 301.504,216.717 301.019 C 216.651 300.554,216.008 299.905,215.231 299.517 C 214.461 299.132,213.640 298.307,213.356 297.631 C 213.045 296.890,212.451 296.328,211.811 296.167 C 211.142 295.999,210.576 295.437,210.222 294.592 C 209.920 293.869,209.295 293.157,208.832 293.010 C 208.370 292.863,207.712 292.203,207.370 291.542 C 207.028 290.881,206.233 290.161,205.603 289.941 C 204.881 289.689,204.305 289.104,204.044 288.356 C 203.778 287.592,203.208 287.022,202.444 286.756 C 201.676 286.488,201.110 285.919,200.839 285.140 C 200.574 284.380,199.984 283.773,199.234 283.490 C 198.528 283.224,197.951 282.658,197.809 282.095 C 197.664 281.518,197.048 280.929,196.233 280.588 C 195.363 280.225,194.802 279.663,194.633 278.987 C 194.489 278.415,193.833 277.643,193.174 277.273 C 192.516 276.903,191.873 276.193,191.744 275.696 C 191.616 275.198,190.977 274.411,190.324 273.946 C 189.672 273.481,189.017 272.782,188.869 272.391 C 188.594 271.665,185.885 268.333,183.887 266.265 C 183.275 265.631,182.519 264.503,182.208 263.757 C 181.896 263.012,181.210 262.205,180.683 261.965 C 180.065 261.683,179.595 261.006,179.362 260.064 C 179.075 258.903,178.740 258.523,177.745 258.230 C 176.646 257.906,176.460 257.642,176.250 256.114 C 175.940 253.852,175.381 252.849,174.176 252.391 C 173.540 252.149,173.198 251.703,173.194 251.110 C 173.186 249.885,172.779 249.324,171.564 248.862 C 170.741 248.550,170.446 248.035,170.035 246.202 C 169.607 244.288,169.312 243.803,168.163 243.125 C 167.146 242.525,166.800 242.046,166.800 241.239 C 166.800 240.535,166.328 239.699,165.447 238.846 C 164.421 237.851,164.034 237.078,163.843 235.642 C 163.653 234.207,163.266 233.433,162.243 232.442 C 161.229 231.459,160.832 230.671,160.643 229.267 C 160.471 227.990,159.951 226.845,158.996 225.644 C 158.228 224.678,157.600 223.451,157.600 222.917 C 157.600 221.720,157.025 220.594,155.541 218.886 C 154.804 218.037,154.397 217.117,154.390 216.286 C 154.374 214.127,153.712 211.963,152.809 211.122 C 151.718 210.106,151.201 208.742,151.198 206.874 C 151.195 204.755,150.511 202.594,149.439 201.312 C 148.747 200.486,148.440 199.481,148.242 197.400 C 147.772 192.466,147.541 191.560,146.418 190.268 C 145.155 188.814,144.869 187.841,144.397 183.400 C 144.006 179.718,143.522 177.936,142.514 176.451 C 141.611 175.122,141.289 164.902,141.488 143.977 C 141.633 128.773,141.761 127.332,143.354 123.000 C 144.072 121.046,144.386 119.390,144.392 117.520 C 144.402 114.349,145.083 110.860,145.840 110.103 C 146.657 109.286,147.600 105.709,147.600 103.427 C 147.601 102.028,147.955 100.652,148.744 98.984 C 149.373 97.655,150.018 95.495,150.178 94.184 C 150.338 92.868,150.986 90.773,151.624 89.507 C 152.260 88.246,153.031 86.130,153.337 84.805 C 153.943 82.181,155.497 79.604,156.938 78.833 C 157.767 78.390,190.136 109.839,202.030 122.646 C 203.037 123.730,204.352 124.938,204.952 125.332 C 205.552 125.725,206.150 126.351,206.281 126.723 C 206.556 127.505,207.285 128.317,211.287 132.296 C 212.889 133.888,214.470 135.467,214.800 135.803 C 217.854 138.918,218.800 139.984,218.800 140.316 C 218.800 140.529,219.317 140.917,219.948 141.179 C 220.580 141.440,221.292 142.083,221.531 142.608 C 221.770 143.132,222.511 143.843,223.177 144.188 C 223.849 144.536,224.501 145.262,224.641 145.821 C 224.780 146.375,225.420 147.100,226.064 147.433 C 226.708 147.766,227.424 148.455,227.656 148.964 C 227.888 149.473,228.690 150.181,229.439 150.538 C 230.188 150.895,230.800 151.377,230.800 151.608 C 230.800 151.964,232.024 153.349,234.738 156.062 C 235.034 156.358,236.065 157.320,237.030 158.200 C 239.163 160.145,239.747 160.734,241.800 163.011 C 243.681 165.096,244.213 165.628,246.718 167.927 C 247.753 168.876,248.915 169.943,249.300 170.297 C 249.685 170.650,250.000 171.178,250.000 171.470 C 250.000 171.761,250.189 172.000,250.419 172.000 C 250.941 172.000,254.104 174.995,257.400 178.609 C 259.233 180.620,259.083 180.467,264.512 185.868 C 266.760 188.106,268.780 190.122,269.000 190.349 C 269.220 190.576,270.615 191.907,272.100 193.307 C 273.585 194.706,274.800 196.060,274.800 196.315 C 274.800 196.571,275.348 197.063,276.017 197.409 C 276.687 197.755,277.436 198.480,277.682 199.019 C 277.927 199.559,278.286 200.000,278.478 200.000 C 278.670 200.000,280.036 201.248,281.514 202.773 C 282.991 204.298,284.437 205.783,284.727 206.073 C 285.017 206.363,287.131 208.490,289.425 210.800 C 291.718 213.110,293.821 215.226,294.097 215.503 C 294.374 215.779,295.815 217.165,297.300 218.583 C 298.785 220.000,300.000 221.339,300.000 221.558 C 300.000 221.777,300.478 222.191,301.063 222.478 C 301.648 222.765,302.323 223.356,302.563 223.791 C 303.666 225.786,306.285 226.115,307.935 224.465 L 308.757 223.643 306.835 223.870 L 304.913 224.098 256.757 175.819 C 230.271 149.265,207.970 126.902,207.200 126.122 C 195.354 114.128,158.040 77.200,157.767 77.201 C 157.565 77.202,156.824 77.554,156.119 77.984 " stroke="none" fill="#dcbcbc" fill-rule="evenodd"></path></g></svg>